<svg width="1200" height="900" viewBox="0 0 1200 900" fill="none" xmlns="http://www.w3.org/2000/svg">
  <rect width="1200" height="900" rx="36" fill="#FFF8F2"/>
  <rect x="34" y="34" width="1132" height="832" rx="28" fill="white" stroke="#E9D5FF" stroke-width="4"/>

  <g opacity="0.14">
    <path d="M84 130H1116" stroke="#A21CAF" stroke-width="10" stroke-linecap="round"/>
    <path d="M84 760H1116" stroke="#A21CAF" stroke-width="10" stroke-linecap="round"/>
  </g>

  <text x="600" y="112" text-anchor="middle" fill="#6D28D9" font-family="Arial, sans-serif" font-size="38" font-weight="700">
    Ejemplo de plancha de stickers
  </text>

  <g>
    <path d="M222 278C222 234.876 256.876 200 300 200H340C383.124 200 418 234.876 418 278V318C418 361.124 383.124 396 340 396H300C256.876 396 222 361.124 222 318V278Z" fill="#FECACA" stroke="#E11D48" stroke-width="6"/>
    <circle cx="320" cy="290" r="42" fill="#FB7185"/>
    <text x="320" y="346" text-anchor="middle" fill="#7F1D1D" font-family="Arial, sans-serif" font-size="22" font-weight="700">Sirena</text>
  </g>

  <g>
    <path d="M486 278C486 234.876 520.876 200 564 200H604C647.124 200 682 234.876 682 278V318C682 361.124 647.124 396 604 396H564C520.876 396 486 361.124 486 318V278Z" fill="#BFDBFE" stroke="#2563EB" stroke-width="6"/>
    <circle cx="584" cy="290" r="42" fill="#60A5FA"/>
    <text x="584" y="346" text-anchor="middle" fill="#1E3A8A" font-family="Arial, sans-serif" font-size="22" font-weight="700">Héroe</text>
  </g>

  <g>
    <path d="M750 278C750 234.876 784.876 200 828 200H868C911.124 200 946 234.876 946 278V318C946 361.124 911.124 396 868 396H828C784.876 396 750 361.124 750 318V278Z" fill="#BBF7D0" stroke="#16A34A" stroke-width="6"/>
    <circle cx="848" cy="290" r="42" fill="#4ADE80"/>
    <text x="848" y="346" text-anchor="middle" fill="#14532D" font-family="Arial, sans-serif" font-size="22" font-weight="700">Chef</text>
  </g>

  <g>
    <path d="M222 556C222 512.876 256.876 478 300 478H340C383.124 478 418 512.876 418 556V596C418 639.124 383.124 674 340 674H300C256.876 674 222 639.124 222 596V556Z" fill="#FDE68A" stroke="#F59E0B" stroke-width="6"/>
    <circle cx="320" cy="568" r="42" fill="#FACC15"/>
    <text x="320" y="624" text-anchor="middle" fill="#78350F" font-family="Arial, sans-serif" font-size="22" font-weight="700">Pintor</text>
  </g>

  <g>
    <path d="M486 556C486 512.876 520.876 478 564 478H604C647.124 478 682 512.876 682 556V596C682 639.124 647.124 674 604 674H564C520.876 674 486 639.124 486 596V556Z" fill="#E9D5FF" stroke="#9333EA" stroke-width="6"/>
    <circle cx="584" cy="568" r="42" fill="#C084FC"/>
    <text x="584" y="624" text-anchor="middle" fill="#581C87" font-family="Arial, sans-serif" font-size="22" font-weight="700">Princesa</text>
  </g>

  <g>
    <path d="M750 556C750 512.876 784.876 478 828 478H868C911.124 478 946 512.876 946 556V596C946 639.124 911.124 674 868 674H828C784.876 674 750 639.124 750 596V556Z" fill="#FBCFE8" stroke="#DB2777" stroke-width="6"/>
    <circle cx="848" cy="568" r="42" fill="#F472B6"/>
    <text x="848" y="624" text-anchor="middle" fill="#831843" font-family="Arial, sans-serif" font-size="22" font-weight="700">Astronauta</text>
  </g>

  <text x="600" y="818" text-anchor="middle" fill="#475569" font-family="Arial, sans-serif" font-size="24" font-weight="600">
    Vista de referencia visual para el usuario
  </text>
</svg>
